<?xml version="1.0" standalone="no"?>
<!DOCTYPE svg PUBLIC "-//W3C//DTD SVG 20010904//EN"
 "http://www.w3.org/TR/2001/REC-SVG-20010904/DTD/svg10.dtd">
<svg version="1.0" xmlns="http://www.w3.org/2000/svg"
 width="1024.000000pt" height="1024.000000pt" viewBox="0 0 1024.000000 1024.000000"
 preserveAspectRatio="xMidYMid meet">

<g transform="translate(0.000000,1024.000000) scale(0.100000,-0.100000)"
fill="#000000" stroke="none">
<path d="M0 5120 l0 -5120 5120 0 5120 0 0 5120 0 5120 -5120 0 -5120 0 0
-5120z m3670 1905 l0 -145 -135 0 -135 0 0 145 0 145 135 0 135 0 0 -145z
m810 -11 c42 -12 67 -29 116 -78 100 -100 117 -195 58 -326 -29 -64 -92 -132
-149 -163 -61 -33 -171 -31 -249 5 l-58 28 -140 -133 c-77 -72 -151 -138 -165
-146 -20 -10 -97 -13 -367 -12 l-341 1 -283 -277 -283 -278 7 -376 c7 -344 6
-381 -10 -430 -22 -68 -56 -110 -225 -282 l-136 -138 -3 -667 -3 -667 -98 2
-98 1 -7 681 c-6 603 -5 685 9 718 10 24 80 102 191 214 l176 176 -1 416 c-2
341 1 421 12 449 9 19 139 156 309 325 226 225 305 297 343 315 48 22 62 23
391 28 l341 5 134 129 134 129 1 67 c2 82 26 141 85 205 83 90 184 116 309 79z
m-2547 -611 c-18 -2 -48 -2 -65 0 -18 2 -4 4 32 4 36 0 50 -2 33 -4z m130 0
c-7 -2 -19 -2 -25 0 -7 3 -2 5 12 5 14 0 19 -2 13 -5z m377 -273 c-18 -34 -53
-40 -224 -40 l-163 0 -5 -612 c-4 -435 -9 -622 -18 -643 -6 -16 -72 -91 -146
-165 l-134 -136 -1 -419 c0 -231 -4 -438 -8 -460 -8 -37 -9 -35 -10 27 -1 60
-3 67 -23 74 -33 11 -51 13 -43 6 4 -4 11 -8 16 -8 5 -1 14 -2 19 -3 6 0 10
-8 10 -17 0 -11 -6 -14 -22 -8 -13 4 -32 8 -43 9 -28 3 -27 2 -14 28 11 20 11
21 -4 8 -10 -8 -15 -23 -13 -37 3 -13 0 -24 -5 -24 -5 0 -9 4 -9 8 0 5 -20 9
-45 9 -39 1 -45 -2 -47 -21 -1 -11 -2 -28 -4 -36 -1 -8 -2 -26 -3 -40 -1 -18
-16 -36 -54 -64 -48 -35 -50 -36 -23 -7 16 17 38 33 48 37 18 5 19 25 17 504
l-1 499 25 43 c14 24 82 96 151 161 l126 118 0 585 0 584 -176 0 c-220 0 -244
10 -242 100 l1 45 6 -49 c11 -77 29 -86 169 -86 97 0 117 3 129 18 14 16 14
16 9 0 -3 -10 -1 -18 4 -18 6 0 10 6 11 13 0 10 2 10 6 0 2 -7 11 -13 19 -13
8 0 13 6 12 13 -2 7 6 11 20 9 12 -2 22 0 21 5 -4 24 4 33 30 33 28 0 47 -22
36 -41 -4 -5 2 -6 11 -2 10 4 15 2 11 -3 -3 -6 -2 -16 4 -24 5 -10 9 -10 9 -3
0 6 9 10 20 8 11 -2 18 0 15 5 -3 6 -1 18 4 27 8 14 10 15 11 3 0 -12 2 -13 9
-1 7 10 13 11 27 2 18 -10 18 -10 0 -11 -21 0 -16 -10 7 -14 8 -1 22 -10 32
-20 16 -16 19 -16 27 -2 5 9 16 16 25 16 15 0 14 2 -2 13 -17 13 -17 14 4 20
15 4 21 1 21 -12 0 -15 17 -17 150 -17 82 -1 147 3 144 7 -3 5 2 6 10 3 18 -7
23 21 6 31 -5 3 -10 10 -10 16 0 5 5 9 10 9 6 0 9 -3 9 -7 -4 -22 3 -25 17 -7
15 18 15 18 5 -3 -16 -31 -13 -41 4 -19 10 13 16 48 17 105 l2 86 3 -87 c2
-52 -1 -96 -7 -108z m-1063 118 c-3 -8 -6 -5 -6 6 -1 11 2 17 5 13 3 -3 4 -12
1 -19z m931 -62 c-2 -1 -12 -8 -22 -16 -18 -14 -18 -14 -6 7 8 12 18 19 23 16
4 -3 7 -6 5 -7z m39 0 c0 -8 -6 -12 -15 -9 -11 5 -11 7 0 14 7 5 13 9 14 9 0
0 1 -6 1 -14z m-391 -18 c0 -10 -5 -18 -11 -18 -6 0 -11 8 -11 18 0 10 5 19
11 19 6 0 11 -9 11 -19z m239 -7 c-6 -5 -25 10 -25 20 0 5 6 4 14 -3 8 -7 12
-15 11 -17z m-169 10 c-3 -5 2 -12 11 -15 12 -5 13 -10 5 -18 -6 -6 -8 -16 -6
-23 7 -18 -14 -29 -30 -15 -17 13 -15 38 5 51 8 5 10 9 6 9 -9 0 1 20 9 20 3
0 3 -4 0 -9z m-279 -32 c-30 -8 -36 0 -13 17 16 11 21 11 28 1 5 -8 0 -14 -15
-18z m133 16 c7 -9 8 -15 2 -15 -5 0 -12 7 -16 15 -3 8 -4 15 -2 15 2 0 9 -7
16 -15z m-180 -1 c0 -8 -19 -13 -24 -6 -3 5 1 9 9 9 8 0 15 -2 15 -3z m535 -4
c3 -6 -1 -7 -9 -4 -18 7 -21 14 -7 14 6 0 13 -4 16 -10z m110 -14 c0 -13 -3
-22 -7 -19 -5 2 -8 13 -8 24 0 10 3 19 8 19 4 0 7 -11 7 -24z m-751 -1 c-4 -8
-10 -12 -15 -9 -11 6 -2 24 11 24 5 0 7 -7 4 -15z m550 -1 c3 -8 2 -12 -4 -9
-6 3 -10 2 -10 -4 0 -8 -8 -8 -39 -2 -2 1 2 8 9 16 16 19 36 19 44 -1z m47 9
c-11 -5 -11 -7 0 -14 10 -6 7 -8 -8 -6 -17 1 -19 4 -11 14 6 7 16 13 22 12 6
0 5 -3 -3 -6z m120 -3 c5 0 9 -5 9 -10 0 -7 -6 -7 -18 -1 -13 7 -22 7 -29 0
-6 -6 -23 -9 -39 -6 -29 4 -28 4 4 6 17 0 32 6 32 12 0 6 7 8 16 5 9 -3 20 -6
25 -6z m-794 -26 c-4 -4 -17 -2 -29 4 l-23 12 24 -6 c18 -5 22 -3 16 7 -6 11
-5 12 5 2 8 -7 11 -16 7 -19z m383 0 c0 -8 -5 -12 -10 -9 -6 4 -8 11 -5 16 9
14 15 11 15 -7z m4591 -33 c69 -26 140 -87 186 -159 19 -30 33 -55 31 -57 -8
-8 -152 -75 -161 -75 -5 0 -28 21 -50 46 -49 55 -105 83 -167 84 -146 0 -237
-99 -248 -271 -6 -109 16 -178 76 -238 101 -101 257 -96 346 11 l37 44 87 -29
c48 -17 89 -32 91 -34 3 -2 -3 -19 -13 -39 -74 -157 -246 -238 -448 -213 -142
18 -280 115 -341 239 -30 61 -57 173 -57 235 0 62 27 174 56 233 57 116 183
216 304 242 72 15 207 5 271 -19z m1841 18 c86 -18 158 -58 224 -124 100 -99
144 -206 144 -350 0 -44 -6 -102 -14 -130 -64 -240 -294 -385 -542 -341 -182
32 -314 141 -375 312 -29 81 -30 232 -1 321 75 234 312 365 564 312z m-3282
-99 l0 -90 -125 0 -125 0 0 -372 1 -373 -101 -3 -100 -3 0 376 0 375 -125 0
-125 0 0 90 0 90 350 0 350 0 0 -90z m723 3 l-1 -88 -196 -3 -196 -2 0 -98 0
-97 187 0 188 0 3 -87 3 -88 -191 0 -190 0 0 -100 0 -100 203 0 203 0 0 -87
-1 -88 -301 0 -302 0 -6 463 -6 462 302 0 303 0 -2 -87z m1277 32 c35 -48 311
-445 350 -504 13 -20 15 7 12 268 l-3 291 103 0 103 0 0 -463 0 -462 -88 -3
c-59 -2 -94 1 -104 9 -8 7 -101 140 -206 297 l-192 284 -3 -296 -2 -297 -98 3
-97 3 -3 463 -2 462 95 0 94 0 41 -55z m-3194 -140 c115 -56 193 -194 180
-315 -9 -81 -30 -127 -79 -179 -97 -101 -241 -130 -362 -73 -56 27 -119 84
-145 131 -10 19 -19 21 -130 21 -65 0 -130 -4 -143 -9 -43 -17 -47 -50 -47
-436 0 -300 -3 -370 -15 -406 -12 -34 -53 -82 -184 -214 l-169 -170 -5 -487
-6 -488 137 0 137 0 85 83 85 82 -85 -88 -85 -87 -140 2 -140 3 -3 188 c-2
127 -6 187 -13 187 -6 0 -9 -9 -6 -20 3 -11 1 -20 -4 -20 -5 0 -8 -3 -8 -7 4
-25 -2 -66 -9 -58 -4 6 -16 11 -27 12 l-20 2 20 -16 c20 -15 20 -15 -3 -10
-12 3 -20 1 -16 -4 3 -5 -6 -13 -20 -19 -16 -6 -26 -17 -26 -29 0 -14 -5 -19
-15 -15 -11 4 -15 28 -18 92 -1 48 -4 -26 -5 -163 -2 -214 0 -254 14 -275 l16
-25 -21 24 c-21 23 -21 32 -22 535 -1 674 -2 662 12 688 6 13 90 102 185 199
l174 176 1 84 c1 46 4 224 8 394 l6 311 32 49 c60 92 137 122 326 127 l119 3
18 53 c10 29 33 70 50 92 82 104 240 137 366 75z m231 -907 c5 -7 39 -80 76
-163 94 -214 158 -348 162 -343 4 4 94 198 185 401 l52 117 114 0 114 0 0
-465 0 -465 -100 0 -100 0 0 292 0 293 -105 -230 c-58 -126 -105 -231 -105
-233 0 -1 -26 -2 -57 0 l-58 3 -105 228 -105 228 -3 -290 -2 -291 -95 0 -95 0
0 465 0 465 109 0 c75 0 111 -4 118 -12z m1429 -215 c43 -126 114 -335 159
-466 l82 -238 -105 3 -106 3 -24 83 -25 82 -173 0 -173 0 -26 -85 -26 -85
-104 0 c-58 0 -105 3 -105 6 0 5 276 803 315 912 3 9 36 12 118 12 l114 0 79
-227z m829 206 c81 -27 136 -74 171 -144 24 -50 26 -63 22 -143 -6 -125 -50
-197 -151 -248 -17 -9 -34 -18 -36 -20 -2 -1 43 -76 100 -165 57 -90 108 -169
112 -176 6 -10 -14 -13 -105 -13 l-113 0 -95 160 -95 159 -52 1 -53 0 0 -160
0 -160 -100 0 -100 0 0 465 0 465 215 0 c192 0 221 -2 280 -21z m525 -167 c0
-101 3 -181 8 -178 4 2 71 86 147 185 l140 181 117 0 c65 0 118 -4 118 -9 0
-5 -4 -11 -8 -13 -4 -1 -59 -68 -122 -148 -63 -80 -134 -169 -157 -198 -24
-29 -43 -56 -43 -61 0 -4 79 -118 175 -252 l174 -244 -110 -3 c-63 -1 -116 2
-123 7 -6 6 -66 87 -131 180 -66 94 -122 170 -125 170 -3 0 -17 -16 -32 -36
-28 -36 -28 -39 -28 -180 l0 -143 -98 0 -99 0 -2 455 c-1 251 1 460 5 466 3 6
46 9 101 7 l95 -3 -2 -183z m1220 98 l0 -90 -195 0 -195 0 0 -95 0 -95 173 -1
c94 -1 178 -1 185 0 9 1 12 -22 12 -89 l0 -90 -185 0 -185 0 0 -100 0 -100
200 0 200 0 0 -90 0 -90 -300 0 -300 0 0 465 0 465 295 0 295 0 0 -90z m790 0
l0 -90 -120 0 -120 0 0 -375 0 -375 -105 0 -105 0 0 375 0 375 -120 0 -120 0
0 90 0 90 345 0 345 0 0 -90z m-5517 -737 c-13 -2 -33 -2 -45 0 -13 2 -3 4 22
4 25 0 35 -2 23 -4z m-123 -18 c0 -2 -15 -12 -32 -20 l-33 -16 25 20 c24 20
40 26 40 16z m236 -11 c18 -14 18 -14 -6 -3 -31 14 -36 19 -24 19 6 0 19 -7
30 -16z m45 -31 c13 -16 12 -17 -3 -4 -17 13 -22 21 -14 21 2 0 10 -8 17 -17z
m-390 -46 c-23 -29 -47 -73 -56 -96 -17 -50 -20 -147 -4 -188 8 -23 8 -26 -3
-15 -9 9 -13 42 -13 105 0 101 15 142 76 212 46 52 45 43 0 -18z m430 6 c13
-16 12 -17 -3 -4 -17 13 -22 21 -14 21 2 0 10 -8 17 -17z m-231 -62 c-20 -4
-42 -11 -50 -15 -8 -4 -6 0 4 8 11 9 34 15 50 15 31 -1 31 -1 -4 -8z m75 -11
c3 -6 -1 -7 -9 -4 -18 7 -21 14 -7 14 6 0 13 -4 16 -10z m-161 -35 c-9 -14
-18 -25 -21 -25 -5 0 5 18 20 38 17 22 18 13 1 -13z m210 -11 c3 -8 2 -12 -4
-9 -6 3 -10 10 -10 16 0 14 7 11 14 -7z m-212 -159 l20 -30 -26 28 c-14 15
-26 36 -25 45 0 14 2 14 6 2 3 -8 15 -28 25 -45z m2548 -115 l0 -140 140 0
140 0 0 140 0 140 75 0 75 0 0 -345 0 -345 -75 0 -75 0 0 140 0 140 -140 0
-140 0 0 -140 0 -140 -75 0 -75 0 0 345 0 345 75 0 75 0 0 -140z m871 -70 c79
-115 146 -209 149 -210 3 0 4 94 2 210 l-3 210 76 0 75 0 0 -345 0 -345 -68 0
-68 0 -94 138 c-52 75 -117 172 -145 214 -27 42 -52 77 -55 77 -3 1 -5 -95 -5
-211 l0 -213 -75 0 -75 0 -3 343 -2 342 74 0 73 0 144 -210z m-3271 140 c-8
-5 -22 -9 -30 -9 -10 0 -8 3 5 9 27 12 43 12 25 0z m-57 -7 c-7 -2 -19 -2 -25
0 -7 3 -2 5 12 5 14 0 19 -2 13 -5z m-1553 -159 c0 -2 -9 0 -20 6 -11 6 -20
13 -20 16 0 2 9 0 20 -6 11 -6 20 -13 20 -16z m1447 -91 c-2 -21 -4 -4 -4 37
0 41 2 58 4 38 2 -21 2 -55 0 -75z m563 103 c0 -2 -7 -7 -16 -10 -8 -3 -12 -2
-9 4 6 10 25 14 25 6z m-403 -113 c-3 -10 -5 -2 -5 17 0 19 2 27 5 18 2 -10 2
-26 0 -35z m-740 -15 c-3 -8 -6 -5 -6 6 -1 11 2 17 5 13 3 -3 4 -12 1 -19z
m-48 -54 c4 3 8 -1 8 -9 0 -31 -23 -13 -24 18 0 20 1 23 4 9 2 -12 8 -20 12
-18z m174 -331 c-23 -2 -64 -2 -90 0 -26 2 -7 3 42 3 50 0 71 -1 48 -3z"/>
<path d="M4331 6826 c-33 -18 -50 -53 -51 -101 -1 -104 120 -148 190 -69 23
27 30 44 30 76 0 80 -96 134 -169 94z"/>
<path d="M2232 3255 c0 -16 2 -22 5 -12 2 9 2 23 0 30 -3 6 -5 -1 -5 -18z"/>
<path d="M2060 3182 l0 -92 90 0 90 0 -2 68 c-2 60 -2 62 -5 16 l-4 -51 -61
-2 c-34 -1 -67 -6 -73 -11 -13 -11 -13 -11 -20 84 -8 100 -15 94 -15 -12z"/>
<path d="M1795 6140 c3 -5 11 -10 16 -10 6 0 7 5 4 10 -3 6 -11 10 -16 10 -6
0 -7 -4 -4 -10z"/>
<path d="M1804 6106 c-3 -8 -4 -25 -2 -38 3 -17 5 -13 9 15 5 38 2 47 -7 23z"/>
<path d="M1511 3754 c0 -11 3 -14 6 -6 3 7 2 16 -1 19 -3 4 -6 -2 -5 -13z"/>
<path d="M1560 3756 c0 -2 7 -7 16 -10 8 -3 12 -2 9 4 -6 10 -25 14 -25 6z"/>
<path d="M8140 5908 c-35 -10 -93 -48 -118 -78 -40 -47 -62 -116 -62 -196 0
-46 6 -99 15 -125 63 -185 313 -230 447 -81 101 112 86 336 -29 431 -67 55
-165 74 -253 49z"/>
<path d="M3658 5728 c-67 -39 -88 -125 -45 -189 59 -89 182 -87 237 4 40 66
13 153 -60 189 -46 24 -87 22 -132 -4z"/>
<path d="M2727 3680 c3 -11 7 -20 9 -20 2 0 4 9 4 20 0 11 -4 20 -9 20 -5 0
-7 -9 -4 -20z"/>
<path d="M5267 4588 c-32 -89 -56 -163 -53 -165 2 -2 53 -2 114 -1 l110 3 -51
157 c-29 86 -54 159 -57 162 -3 3 -31 -68 -63 -156z"/>
<path d="M6050 4695 l0 -125 108 0 c118 0 140 8 167 60 20 38 19 84 -1 126
-25 52 -57 64 -174 64 l-100 0 0 -125z"/>
</g>
</svg>
