<?xml version="1.0" standalone="no"?>
<!DOCTYPE svg PUBLIC "-//W3C//DTD SVG 20010904//EN"
 "http://www.w3.org/TR/2001/REC-SVG-20010904/DTD/svg10.dtd">
<svg version="1.0" xmlns="http://www.w3.org/2000/svg"
 width="1080.000000pt" height="1080.000000pt" viewBox="0 0 1080.000000 1080.000000"
 preserveAspectRatio="xMidYMid meet">

<g transform="translate(0.000000,1080.000000) scale(0.100000,-0.100000)"
fill="#000000" stroke="none">
<path d="M3240 5340 l0 -950 2160 0 2160 0 0 950 0 950 -2160 0 -2160 0 0
-950z m1550 860 l0 -61 -57 3 -58 3 -3 58 -3 57 61 0 60 0 0 -60z m379 -25
c64 -54 62 -136 -5 -195 -37 -32 -70 -37 -122 -19 -31 10 -34 8 -98 -50 l-67
-61 -146 0 -146 0 -118 -111 -117 -111 0 -169 c0 -108 -4 -178 -11 -192 -7
-12 -43 -56 -80 -99 l-69 -76 0 -265 0 -265 -34 -4 c-34 -4 -34 -4 -45 51 -6
30 -11 157 -11 282 l0 227 39 49 c21 26 57 66 80 88 l41 39 0 180 0 179 128
130 c70 71 141 136 159 143 22 10 74 14 163 14 l131 0 59 51 c50 45 59 58 65
97 5 33 16 55 40 79 29 29 40 33 83 33 39 0 57 -6 81 -25z m-1118 -355 c8 12
12 12 16 2 4 -10 8 -9 19 5 13 17 13 17 14 0 0 -10 3 -16 8 -13 4 2 4 -33 0
-77 -3 -45 -7 -167 -7 -270 l-1 -189 -60 -62 -60 -63 0 -178 c0 -164 -1 -177
-16 -159 -8 10 -13 14 -10 8 4 -8 -6 -12 -30 -12 -20 0 -40 -6 -45 -13 -5 -8
-9 73 -9 189 l0 204 65 67 65 68 0 241 c0 221 -1 242 -17 242 -15 0 -14 2 3
14 17 13 21 12 37 -2 16 -14 20 -14 28 -2z m217 8 c-6 -16 -48 -23 -48 -9 0 6
7 8 15 5 8 -4 15 -1 15 5 0 6 5 11 11 11 6 0 9 -6 7 -12z m-391 -14 c-3 -3
-12 -4 -19 -1 -8 3 -5 6 6 6 11 1 17 -2 13 -5z m2085 -4 c21 -6 51 -27 73 -52
l38 -41 -34 -17 c-33 -18 -34 -17 -62 6 -40 33 -69 39 -110 19 -42 -20 -57
-50 -57 -115 0 -41 5 -56 29 -82 37 -42 96 -46 135 -9 22 20 30 23 57 15 44
-13 46 -27 7 -68 -82 -88 -235 -65 -296 42 -61 111 -17 247 98 296 42 18 72
19 122 6z m801 -1 c21 -6 56 -26 77 -45 107 -96 86 -267 -40 -332 -73 -38
-182 -20 -236 40 -37 40 -54 85 -54 143 0 94 54 169 140 193 47 14 68 14 113
1z m-1393 -39 l0 -40 -56 0 -56 0 7 -155 7 -155 -46 0 -46 0 0 155 0 155 -50
0 -50 0 0 40 0 40 145 0 145 0 0 -40z m310 6 l0 -34 -85 -7 -85 -7 0 -39 0
-39 80 0 80 0 0 -35 0 -35 -80 0 -80 0 0 -45 0 -45 85 0 85 0 0 -35 0 -35
-124 0 -123 0 -7 61 c-3 34 -6 122 -6 195 l0 134 130 0 130 0 0 -34z m596 -81
c44 -63 82 -115 87 -115 4 0 7 52 7 115 l0 115 40 0 40 0 0 -195 0 -195 -40 0
c-40 0 -40 0 -122 123 l-83 122 -3 -122 -3 -123 -39 0 -40 0 0 195 0 195 39 0
c38 0 40 -2 117 -115z m-1405 30 c62 -33 88 -124 53 -185 -24 -39 -65 -60
-118 -60 -38 0 -52 6 -85 35 -34 31 -45 35 -94 35 -41 0 -56 -4 -61 -16 -3 -9
-6 -85 -6 -170 0 -94 -4 -164 -11 -177 -6 -12 -41 -52 -78 -90 l-66 -67 -3
-137 -4 -137 -34 -30 c-19 -16 -33 -35 -30 -42 3 -7 1 -16 -4 -19 -6 -4 -10
70 -10 196 l0 203 80 82 80 82 0 166 0 166 29 32 c26 30 35 33 100 36 70 4 71
5 88 39 31 65 109 91 174 58z m142 -486 l52 -112 49 112 50 111 48 0 48 0 0
-195 0 -195 -40 0 -39 0 -3 118 -3 117 -44 -92 c-37 -80 -47 -93 -68 -93 -21
0 -31 13 -68 93 l-44 92 0 -117 -1 -118 -40 0 -40 0 0 195 0 195 45 0 45 0 53
-111z m588 -84 l67 -195 -43 0 c-41 0 -44 2 -55 35 l-12 35 -72 0 -73 0 -9
-32 c-9 -31 -13 -33 -56 -36 l-47 -3 59 168 c86 248 72 223 127 223 l48 0 66
-195z m336 175 c50 -30 66 -63 60 -118 -4 -38 -12 -53 -41 -78 l-35 -30 39
-65 c22 -35 40 -67 40 -71 0 -5 -19 -8 -43 -8 -42 0 -43 1 -81 65 -30 51 -43
65 -62 65 -23 0 -24 -3 -24 -65 l0 -65 -40 0 -40 0 0 195 0 195 98 0 c78 0
103 -4 129 -20z m205 -57 l3 -77 59 77 59 77 50 0 49 0 -28 -37 c-15 -21 -47
-62 -71 -92 -28 -34 -40 -57 -35 -65 5 -6 39 -53 76 -103 l66 -93 -49 0 -49 0
-52 70 c-29 39 -58 69 -64 67 -6 -2 -12 -32 -14 -71 l-3 -67 -42 3 -42 3 -3
170 c-3 213 -3 215 48 215 l39 0 3 -77z m508 37 l0 -40 -80 0 -80 0 0 -40 0
-40 75 0 75 0 0 -35 0 -35 -75 0 -75 0 0 -45 0 -45 85 0 85 0 0 -35 0 -35
-130 0 -130 0 0 195 0 195 125 0 125 0 0 -40z m338 3 l-3 -38 -52 -3 -53 -3 0
-155 0 -154 -40 0 -40 0 0 155 0 155 -50 0 -50 0 0 40 0 40 146 0 145 0 -3
-37z m-1308 -523 l0 -60 60 0 60 0 0 60 0 60 30 0 30 0 0 -145 0 -145 -30 0
-30 0 0 60 0 60 -60 0 -60 0 0 -60 0 -60 -30 0 -30 0 0 145 0 145 30 0 30 0 0
-60z m369 -27 l61 -86 0 86 0 87 35 0 35 0 0 -146 0 -145 -32 3 c-29 3 -40 14
-93 92 l-60 88 -3 -91 -3 -91 -29 0 -30 0 0 145 0 145 29 0 c26 0 38 -11 90
-87z"/>
<path d="M5073 6119 c-17 -6 -23 -16 -23 -37 0 -51 41 -69 74 -33 33 36 -5 88
-51 70z"/>
<path d="M6652 5720 c-38 -23 -52 -54 -52 -114 0 -79 71 -131 146 -106 94 31
100 188 9 226 -46 19 -64 18 -103 -6z"/>
<path d="M4773 5648 c-30 -39 -5 -98 41 -98 28 0 56 29 56 57 0 42 -73 72 -97
41z"/>
<path d="M5461 5175 c-13 -36 -21 -68 -18 -71 5 -5 87 4 87 10 0 11 -33 113
-39 119 -4 4 -18 -22 -30 -58z"/>
<path d="M5790 5220 l0 -50 48 0 c54 0 72 12 72 50 0 38 -18 50 -72 50 l-48 0
0 -50z"/>
</g>
</svg>
